<svg xmlns="http://www.w3.org/2000/svg" width="1180" height="650">
<rect width="100%" height="100%" fill="white"/>
<text x="590.0" y="35" text-anchor="middle" font-family="Arial" font-size="20">Frozen Candidate Profit Factor By Regime (Reference)</text>
<text transform="translate(22,285.0) rotate(-90)" text-anchor="middle" font-family="Arial" font-size="13">Profit Factor (finite values)</text>
<line x1="90" y1="500.00" x2="1130" y2="500.00" stroke="#333" stroke-width="1"/>
<rect x="111.67" y="274.78" width="33.80" height="225.22" fill="#285f8f"/>
<rect x="155.00" y="294.25" width="33.80" height="205.75" fill="#c26d2e"/>
<rect x="198.33" y="463.23" width="33.80" height="36.77" fill="#438a5e"/>
<text x="155.00" y="522" text-anchor="middle" font-family="Arial" font-size="11">2020 | COVID / crisis</text>
<rect x="285.00" y="461.86" width="33.80" height="38.14" fill="#285f8f"/>
<rect x="328.33" y="358.39" width="33.80" height="141.61" fill="#c26d2e"/>
<rect x="371.67" y="453.84" width="33.80" height="46.16" fill="#438a5e"/>
<text x="328.33" y="522" text-anchor="middle" font-family="Arial" font-size="11">2021 | 2021 observed regime</text>
<rect x="458.33" y="500.00" width="33.80" height="1.00" fill="#285f8f"/>
<rect x="501.67" y="348.40" width="33.80" height="151.60" fill="#c26d2e"/>
<rect x="545.00" y="427.46" width="33.80" height="72.54" fill="#438a5e"/>
<text x="501.67" y="522" text-anchor="middle" font-family="Arial" font-size="11">2022 | tightening / bear trend</text>
<rect x="631.67" y="70.00" width="33.80" height="430.00" fill="#285f8f"/>
<rect x="675.00" y="363.55" width="33.80" height="136.45" fill="#c26d2e"/>
<rect x="718.33" y="309.18" width="33.80" height="190.82" fill="#438a5e"/>
<text x="675.00" y="522" text-anchor="middle" font-family="Arial" font-size="11">2024 | modern mixed regime</text>
<rect x="805.00" y="373.49" width="33.80" height="126.51" fill="#285f8f"/>
<rect x="848.33" y="375.70" width="33.80" height="124.30" fill="#c26d2e"/>
<rect x="891.67" y="369.68" width="33.80" height="130.32" fill="#438a5e"/>
<text x="848.33" y="522" text-anchor="middle" font-family="Arial" font-size="11">canonical | original regime</text>
<rect x="978.33" y="500.00" width="33.80" height="1.00" fill="#285f8f"/>
<rect x="1021.67" y="378.08" width="33.80" height="121.92" fill="#c26d2e"/>
<rect x="1065.00" y="500.00" width="33.80" height="1.00" fill="#438a5e"/>
<text x="1021.67" y="522" text-anchor="middle" font-family="Arial" font-size="11">generated | legacy generated regime</text>
<rect x="90" y="585" width="15" height="15" fill="#285f8f"/>
<text x="112" y="597" font-family="Arial" font-size="12">CCRRR</text>
<rect x="315" y="585" width="15" height="15" fill="#c26d2e"/>
<text x="337" y="597" font-family="Arial" font-size="12">PriorSlope_DominantPressureValue_Q3</text>
<rect x="540" y="585" width="15" height="15" fill="#438a5e"/>
<text x="562" y="597" font-family="Arial" font-size="12">RRCCC</text>
</svg>