<svg xmlns="http://www.w3.org/2000/svg" width="1180" height="650">
<rect width="100%" height="100%" fill="white"/>
<text x="590.0" y="35" text-anchor="middle" font-family="Arial" font-size="20">Frozen Candidate Profit Factor By Regime (Reference)</text>
<text transform="translate(22,285.0) rotate(-90)" text-anchor="middle" font-family="Arial" font-size="13">Profit Factor (finite values)</text>
<line x1="90" y1="500.00" x2="1130" y2="500.00" stroke="#333" stroke-width="1"/>
<rect x="108.57" y="235.22" width="28.97" height="264.78" fill="#285f8f"/>
<rect x="145.71" y="258.11" width="28.97" height="241.89" fill="#c26d2e"/>
<rect x="182.86" y="456.77" width="28.97" height="43.23" fill="#438a5e"/>
<text x="145.71" y="522" text-anchor="middle" font-family="Arial" font-size="11">2020 | COVID / crisis</text>
<rect x="257.14" y="455.16" width="28.97" height="44.84" fill="#285f8f"/>
<rect x="294.29" y="333.51" width="28.97" height="166.49" fill="#c26d2e"/>
<rect x="331.43" y="445.73" width="28.97" height="54.27" fill="#438a5e"/>
<text x="294.29" y="522" text-anchor="middle" font-family="Arial" font-size="11">2021 | 2021 observed regime</text>
<rect x="405.71" y="500.00" width="28.97" height="1.00" fill="#285f8f"/>
<rect x="442.86" y="321.77" width="28.97" height="178.23" fill="#c26d2e"/>
<rect x="480.00" y="414.72" width="28.97" height="85.28" fill="#438a5e"/>
<text x="442.86" y="522" text-anchor="middle" font-family="Arial" font-size="11">2022 | tightening / bear trend</text>
<rect x="554.29" y="461.34" width="28.97" height="38.66" fill="#285f8f"/>
<rect x="591.43" y="315.63" width="28.97" height="184.37" fill="#c26d2e"/>
<rect x="628.57" y="95.36" width="28.97" height="404.64" fill="#438a5e"/>
<text x="591.43" y="522" text-anchor="middle" font-family="Arial" font-size="11">2023 | 2023 observed regime</text>
<rect x="702.86" y="70.00" width="28.97" height="430.00" fill="#285f8f"/>
<rect x="740.00" y="342.37" width="28.97" height="157.63" fill="#c26d2e"/>
<rect x="777.14" y="500.00" width="28.97" height="1.00" fill="#438a5e"/>
<text x="740.00" y="522" text-anchor="middle" font-family="Arial" font-size="11">2024 | modern mixed regime</text>
<rect x="851.43" y="351.26" width="28.97" height="148.74" fill="#285f8f"/>
<rect x="888.57" y="353.87" width="28.97" height="146.13" fill="#c26d2e"/>
<rect x="925.71" y="346.79" width="28.97" height="153.21" fill="#438a5e"/>
<text x="888.57" y="522" text-anchor="middle" font-family="Arial" font-size="11">canonical | original regime</text>
<rect x="1000.00" y="500.00" width="28.97" height="1.00" fill="#285f8f"/>
<rect x="1037.14" y="356.66" width="28.97" height="143.34" fill="#c26d2e"/>
<rect x="1074.29" y="500.00" width="28.97" height="1.00" fill="#438a5e"/>
<text x="1037.14" y="522" text-anchor="middle" font-family="Arial" font-size="11">generated | legacy generated regime</text>
<rect x="90" y="585" width="15" height="15" fill="#285f8f"/>
<text x="112" y="597" font-family="Arial" font-size="12">CCRRR</text>
<rect x="315" y="585" width="15" height="15" fill="#c26d2e"/>
<text x="337" y="597" font-family="Arial" font-size="12">PriorSlope_DominantPressureValue_Q3</text>
<rect x="540" y="585" width="15" height="15" fill="#438a5e"/>
<text x="562" y="597" font-family="Arial" font-size="12">RRCCC</text>
</svg>